name processed_emg_signals
nRows=82
nColumns=7
 
endheader
time	LGLTMED	LRF	LADDLONG	LST	LTA	LGM
1.35	0.0803834935278679	0.2307373694650496	0.4494818664216186	0.0377537302254833	0.5328908020514963	0.0557908468348458
1.351	0.0804561882072527	0.2312832677722209	0.4483356096736863	0.0370309795668197	0.5287649777860122	0.0556509998877251
1.352	0.080536347905231	0.2318574868518705	0.4472434493366636	0.036286075983281	0.5245911783956212	0.0555006126494053
1.353	0.0806240517847258	0.232459516237853	0.4462074931692202	0.0355193955247743	0.5203739045669247	0.0553401133382193
1.354	0.0807193791827305	0.2330888138599498	0.4452298285625336	0.0347313643205718	0.5161175857589804	0.0551699311278348
1.355	0.0808224094407065	0.2337448065520436	0.4443125185721094	0.0339224594227577	0.5118265728471644	0.0549904952920645
1.356	0.0809332217286912	0.2344268906079522	0.443457597991761	0.0330932096068114	0.5075051310420794	0.0548022343681212
1.357	0.08105189486285	0.2351344323832839	0.4426670694760685	0.032244196127121	0.503157433097776	0.0546055753397324
1.358	0.0811785071162105	0.2358667689414653	0.4419428997179416	0.0313760534251992	0.49878755282323	0.0544009428414359
1.359	0.0813131360219924	0.2366232087420906	0.4412870156871981	0.030489469788408	0.4943994589108876	0.0541887583853501
1.36	0.0814558581690124	0.2374030323704016	0.4407013009352568	0.02958518795702	0.4899970090958315	0.0539694396116188
1.361	0.0816067489882003	0.238205493306361	0.4401875919718815	0.0286640056774941	0.4855839446587522	0.0537433995637529
1.362	0.0817658825294821	0.2390298187321149	0.4397476747194164	0.0277267761998419	0.4811638852850126	0.0535110459899621
1.363	0.0819333312279342	0.2398752103761508	0.4393832810516283	0.0267744087170572	0.4767403242910429	0.0532727806715921
1.364	0.0821091656585174	0.2407408453924867	0.4390960854248141	0.025807868744542	0.4723166242279411	0.0530289987796672
1.365	0.0822934542785503	0.2416258772721627	0.4388877016086092	0.024828178437543	0.46789601287072	0.0527800882604782
1.366	0.0824862631574747	0.2425294367846745	0.4387596795248085	0.023836416844605	0.4634815796001892	0.0525264292511089
1.367	0.0826876556935301	0.2434506329458343	0.4387135022005188	0.0228337200950778	0.459076272183062	0.052268393525702
1.368	0.0828976923170534	0.2443885540082942	0.4387505828422239	0.0218212815186962	0.4546828939543909	0.0520063439732117
1.369	0.0831164301804051	0.2453422684703919	0.4388722620361096	0.0208003516953004	0.4503041014048842	0.0517406341073282
1.37	0.0833439228345501	0.2463108260982557	0.4390798050789513	0.019772238432849	0.4459424021741234	0.0514716076091725
1.371	0.0835802198925238	0.2472932589559753	0.4393743994437347	0.0187383066718308	0.4416001534491384	0.0511995979033348
1.372	0.0838253666798845	0.2482885824384484	0.4397571523830939	0.0176999783143696	0.4372795607663766	0.0509249277676641
1.373	0.0840794038723742	0.2492957963016956	0.4402290886732506	0.0166587319762382	0.4329826772137031	0.0506479089771653
1.374	0.0843423671210178	0.2503138856857129	0.4407911485001612	0.0156161026600889	0.4287114030276999	0.0503688419822028
1.375	0.0846142866649603	0.2513418221250618	0.4414441854887861	0.0145736813482126	0.4244674855801911	0.0500880156211083
1.3760000000000001	0.0848951869327332	0.252378564543367	0.4421889648758462	0.0135331145132158	0.4202525197466736	0.0498057068672107
1.377	0.0851850861326429	0.253423060228062	0.4430261618262293	0.0124961035450705	0.4160679486481601	0.0495221806102363
1.3780000000000001	0.0854839958332487	0.2544742457828794	0.44395635989187	0.0114644040929752	0.4119150647567794	0.0492376894719155
1.379	0.0857919205348741	0.2555310480560377	0.4449800496118392	0.0104398253206153	0.407795011354293	0.0489524736556196
1.3800000000000001	0.0861088572330839	0.2565923850423295	0.4460976272516364	0.0094242290733353	0.4037087843314014	0.0486667608297224
1.381	0.0864347949749272	0.2576571667582187	0.4473093936797507	0.0084195289559217	0.3996572343143553	0.0483807660443303
1.3820000000000001	0.086769714408872	0.2587242960896181	0.4486155533800101	0.0074276893196662	0.3956410691040506	0.0480946916810184
1.383	0.087113587329081	0.2597926696131493	0.4500162136000007	0.0064507241576132	0.3916608564114605	0.0478087274350901
1.3840000000000001	0.087466376215093	0.2608611783929019	0.4515113836362708	0.0054906959069846	0.3877170268721229	0.0475230503299301
1.385	0.0878280337677876	0.26192870875524	0.4531009742588149	0.0045497141580414	0.3838098773213236	0.0472378247629483
1.3860000000000001	0.0881985024427886	0.2629941430455332	0.4547847972776032	0.0036299342688333	0.3799395743107515	0.0469532025826283
1.387	0.0885777139825139	0.2640563603700965	0.456562565254632	0.0027335558854924	0.3761061578468872	0.0466693231961719
1.3880000000000001	0.0889655889482317	0.2651142373271905	0.4584338913649658	0.0018628213679236	0.3723095453310497	0.0463863137071174
1.389	0.0893620362539748	0.2661666487305197	0.4603982894107171	0.001020014120774	0.368549535680904	0.0461042890823047
1.3900000000000001	0.0897669527040689	0.2672124683286661	0.4624551739907441	0.0002074568298459	0.3648258136133523	0.0458233523473936
1.391	0.0901802225363985	0.2682505695235642	0.4646038608299294	0.0005724903958798	0.3611379540691761	0.0455435948101208
1.3920000000000001	0.0906017169735377	0.2692798260912328	0.4668435672711254	0.0013174319761681	0.357485426760677	0.0452650963103609
1.393	0.0910312937837381	0.2702991129077656	0.4691734129330206	0.0020249389048038	0.353867600824823	0.0449879254959538
1.3940000000000001	0.0914687968539676	0.2713073066844887	0.4715924205366456	0.0026925508873665	0.3502837495663168	0.0447121401231509
1.395	0.0919140557769973	0.2723032867162478	0.4740995169017619	0.0033177785704136	0.3467330552772868	0.0444377873804603
1.3960000000000001	0.0923668854546105	0.2732859356473211	0.4766935341137813	0.0038981058607359	0.3432146141225745	0.044164904234592
1.397	0.0928270857187089	0.2742541402597456	0.4793732108604445	0.0044309923332007	0.3397274410814528	0.0438935177971565
1.3980000000000001	0.0932944409721484	0.2752067922890166	0.4821371939355974	0.0049138757254933	0.3362704749378979	0.0436236457107628
1.399	0.0937687198509309	0.2761427892714191	0.4849840399067127	0.00534417451801	0.3328425833121782	0.0433552965530726
1.4000000000000001	0.0942496749093661	0.2770610354274928	0.4879122169414215	0.0057192905969874	0.3294425677267941	0.043088470257428
1.401	0.0947370423297167	0.2779604425850513	0.4909201067875304	0.0060366119988072	0.3260691686998557	0.0428231585485369
1.4020000000000001	0.0952305416577431	0.278839931144814	0.4940060069014623	0.006293515733275	0.3227210708591569	0.042559345391727
1.403	0.0957298755653937	0.2796984310915856	0.4971681327198002	0.0064873706835058	0.3193969080702978	0.0422970074542048
1.4040000000000001	0.0962347296418017	0.2805348830531101	0.5004046200690961	0.0066155405798262	0.3160952685720953	0.0420361145766852
1.405	0.0967447722136223	0.2813482394085653	0.5037135277083581	0.006675387045029	0.31281470011218	0.0417766302537279
1.4060000000000001	0.097259654195666	0.2821374654480625	0.5070928399986085	0.0066642727081568	0.3095537150752282	0.0415185121211352
1.407	0.0977790089729356	0.2829015405843055	0.5105404696929295	0.0065795643838334	0.3063107955959027	0.0412617124487756
1.408	0.0983024523146918	0.2836394596168799	0.5140542608394167	0.0064186363141807	0.3030843986483321	0.0410061786373099
1.409	0.0988295823214786	0.2843502340492923	0.5176319917884273	0.0061788734701454	0.2998729611039727	0.0407518537173385
1.41	0.0993599794056639	0.285032893457933	0.5212713782955066	0.0058576749090644	0.2966749047499787	0.0404986768495207
1.411	0.0998932063060943	0.2856864869117667	0.5249700767101386	0.0054524571851597	0.2934886412607443	0.0402465838242596
1.412	0.1004288081372506	0.2863100844406689	0.5287256872406911	0.0049606578095628	0.2903125771158272	0.0399955075595028
1.413	0.1009663124732999	0.2869027785498617	0.532535757286207	0.0043797387563303	0.2871451184576306	0.0397453785952542
1.414	0.1015052294671056	0.2874636857773267	0.5363977848263877	0.0037071900107219	0.2839846758822438	0.0394961255833824
1.415	0.1020450520043983	0.2879919482906973	0.5403092218622703	0.0029405331557666	0.2808296691567896	0.0392476757714606
1.416	0.102585255893223	0.2884867355194279	0.5442674779019304	0.0020773249929692	0.2776785318573248	0.0389999554795223
1.417	0.1031253000889506	0.2889472458175632	0.5482699234863134	0.0011151611926507	0.2745297159225899	0.0387528905688125
1.418	0.1036646269551371	0.2893727081516081	0.5523138937519839	5.167996930802881e-05	0.2713816961207836	0.0385064069017876
1.419	0.1042026625607826	0.2897623838073637	0.5563966920273191	0.001115434222934	0.268232974428423	0.0382604307927197
1.42	0.1047388170142918	0.2901155681087884	0.5605155934593427	0.0023884469798029	0.2650820843217069	0.0380148894483138
1.421	0.105272484834683	0.2904315921415296	0.5646678486669917	0.0037695702265176	0.2619275949813971	0.0377697113977746
1.422	0.1058030453604057	0.2907098244731354	0.5688506874168364	0.0052609584929179	0.2587681154120485	0.0375248269118314
1.423	0.1063298631961771	0.290949672861596	0.5730613223167604	0.0068647051896051	0.2556022984758015	0.037280168410175
1.424	0.106852288698203	0.2911505859440006	0.5772969525229702	0.008582838890698	0.252428844840195	0.0370356708568696
1.425	0.1073696584979398	0.2913120548971941	0.5815547674555788	0.0104173196289167	0.2492465068386922	0.0367912721432534
1.426	0.1078812960645672	0.291433615062669	0.5858319505171559	0.0123700352088531	0.2460540922417944	0.036546913457982
1.427	0.1083865123061695	0.2915148475289114	0.5901256828093072	0.0144427975442729	0.2428504679358275	0.0363025396438431
1.428	0.1088846062096627	0.2915553806646568	0.5944331468418782	0.0166373390254184	0.2396345635057407	0.0360580995410398
1.429	0.109374865519144	0.2915548915973114	0.5987515302306169	0.0189553089222891	0.2364053747175307	0.0358135463166346
1.43	0.1098565674523714	0.2915131076315289	0.6030780293778714	0.0213982698299606	0.2331619668953713	0.0355688377798127
1.431	0.1103289794547467	0.2914298076030641	0.607409853130713	0.0239676941619777	0.2299034781881091	0.0353239366825814
